<svg clip-rule="evenodd" fill-rule="evenodd" stroke-linejoin="round" stroke-miterlimit="2" viewBox="0 0 1750 500" xmlns="http://www.w3.org/2000/svg"><path d="M1042.73 324.529c-2.1 0-3.916-.764-5.444-2.293s-2.293-3.343-2.293-5.444V183.25c0-2.101.764-3.916 2.293-5.445s3.343-2.292 5.445-2.292h47.284c2.101 0 3.916.764 5.444 2.292s2.293 3.344 2.293 5.445v9.457c3.248-4.394 8.358-8.74 15.331-13.039s15.14-6.639 24.502-7.021c22.544-.764 37.636 7.069 45.278 23.499 4.394-6.687 10.603-12.275 18.627-16.765s16.43-6.734 25.218-6.734c9.744 0 18.58 2.197 26.508 6.591s14.28 11.272 19.057 20.633 7.164 21.588 7.164 36.681v80.24c0 2.101-.764 3.916-2.292 5.444s-3.344 2.293-5.445 2.293h-50.436c-2.102 0-3.917-.764-5.445-2.293s-2.293-3.343-2.293-5.444v-78.807c0-3.057-.477-5.636-1.433-7.737s-2.245-3.678-3.868-4.729-3.678-1.576-6.162-1.576c-2.292 0-4.298.525-6.018 1.576s-3.009 2.627-3.868 4.729-1.29 4.68-1.29 7.737v78.807c0 2.101-.764 3.916-2.292 5.444s-3.344 2.293-5.445 2.293h-50.436c-2.102 0-3.917-.764-5.445-2.293s-2.293-3.343-2.293-5.444v-78.807c0-3.057-.477-5.636-1.433-7.737s-2.245-3.678-3.868-4.729-3.678-1.576-6.162-1.576c-2.292 0-4.298.573-6.018 1.72s-3.056 2.722-4.012 4.728-1.432 4.537-1.432 7.594v78.807c0 2.101-.765 3.916-2.293 5.444s-3.343 2.293-5.445 2.293z" fill="#fed141" fill-rule="nonzero"/><path d="M1104.63 173.22a18.396 18.396 0 0 0-2.102-2.483c-3.51-3.51-7.69-5.23-12.513-5.23h-47.284c-4.824 0-9.003 1.72-12.514 5.23s-5.23 7.69-5.23 12.513v133.542c0 4.823 1.72 9.003 5.23 12.513s7.69 5.23 12.514 5.23h51.582c4.824 0 9.003-1.72 12.514-5.23s5.23-7.69 5.23-12.513v-78.807c0-1.314.047-2.436.453-3.296.144-.286.287-.549.526-.716.143-.072.31-.024.477-.024.24 0 .621.048.812.072.048.095.072.238.12.358.43.979.525 2.197.525 3.606v78.807c0 4.823 1.72 9.003 5.23 12.513s7.69 5.23 12.514 5.23h50.436c4.824 0 9.003-1.72 12.513-5.23s5.23-7.69 5.23-12.513v-78.807c0-1.552.096-2.89.55-3.94l.023-.072c.191-.048.382-.024.597-.024.24 0 .621.048.812.072.048.095.072.238.12.358.43.979.525 2.197.525 3.606v78.807c0 4.823 1.72 9.003 5.23 12.513s7.69 5.23 12.514 5.23h50.436c4.824 0 9.003-1.72 12.513-5.23s5.23-7.69 5.23-12.513v-80.24c0-16.98-2.89-30.687-8.263-41.218-5.755-11.32-13.54-19.535-23.116-24.836-9.385-5.206-19.821-7.857-31.356-7.857-10.483 0-20.513 2.65-30.09 8.024-4.728 2.627-8.93 5.612-12.585 8.931-10.268-11.797-25.743-17.648-46.782-16.955-.024 0-.048.024-.072.024-11.224.454-20.991 3.343-29.35 8.501a81.975 81.975 0 0 0-3.2 2.054zm-61.9 151.309c-2.1 0-3.916-.764-5.444-2.293s-2.293-3.343-2.293-5.444V183.25c0-2.101.764-3.916 2.293-5.445s3.343-2.292 5.445-2.292h47.284c2.101 0 3.916.764 5.444 2.292s2.293 3.344 2.293 5.445v9.457c3.248-4.394 8.358-8.74 15.331-13.039s15.14-6.639 24.502-7.021c22.544-.764 37.636 7.069 45.278 23.499 4.394-6.687 10.603-12.275 18.627-16.765s16.43-6.734 25.218-6.734c9.744 0 18.58 2.197 26.508 6.591s14.28 11.272 19.057 20.633 7.164 21.588 7.164 36.681v80.24c0 2.101-.764 3.916-2.292 5.444s-3.344 2.293-5.445 2.293h-50.436c-2.102 0-3.917-.764-5.445-2.293s-2.293-3.343-2.293-5.444v-78.807c0-3.057-.477-5.636-1.433-7.737s-2.245-3.678-3.868-4.729-3.678-1.576-6.162-1.576c-2.292 0-4.298.525-6.018 1.576s-3.009 2.627-3.868 4.729-1.29 4.68-1.29 7.737v78.807c0 2.101-.764 3.916-2.292 5.444s-3.344 2.293-5.445 2.293h-50.436c-2.102 0-3.917-.764-5.445-2.293s-2.293-3.343-2.293-5.444v-78.807c0-3.057-.477-5.636-1.433-7.737s-2.245-3.678-3.868-4.729-3.678-1.576-6.162-1.576c-2.292 0-4.298.573-6.018 1.72s-3.056 2.722-4.012 4.728-1.432 4.537-1.432 7.594v78.807c0 2.101-.765 3.916-2.293 5.444s-3.343 2.293-5.445 2.293z" fill="#fff"/><path d="M1311.533 324.529c-2.102 0-3.917-.764-5.445-2.293s-2.292-3.343-2.292-5.444V183.25c0-2.101.764-3.916 2.292-5.445s3.343-2.292 5.445-2.292h51.296c2.101 0 3.916.764 5.445 2.292s2.292 3.344 2.292 5.445v133.542c0 2.101-.764 3.916-2.292 5.444s-3.344 2.293-5.445 2.293zm1.433-164.778c-2.102 0-3.917-.764-5.445-2.292s-2.293-3.343-2.293-5.445v-34.675c0-2.101.765-3.916 2.293-5.445s3.343-2.292 5.445-2.292h48.43c2.102 0 3.917.764 5.445 2.292s2.292 3.344 2.292 5.445v34.675c0 2.102-.764 3.916-2.292 5.445s-3.343 2.292-5.445 2.292z" fill="#fed141" fill-rule="nonzero"/><path d="M1303.843 167.226c-1.72.86-3.343 2.03-4.824 3.51-3.51 3.511-5.23 7.69-5.23 12.514v133.542c0 4.823 1.72 9.003 5.23 12.513s7.69 5.23 12.514 5.23h51.296c4.824 0 9.003-1.72 12.513-5.23s5.23-7.69 5.23-12.513V183.25c0-4.824-1.72-9.003-5.23-12.513-1.48-1.481-3.08-2.651-4.823-3.51 1.194-.717 2.316-1.625 3.39-2.7 3.511-3.51 5.23-7.69 5.23-12.513v-34.675c0-4.824-1.719-9.003-5.23-12.513s-7.689-5.23-12.513-5.23h-48.43c-4.824 0-9.003 1.72-12.514 5.23s-5.23 7.69-5.23 12.513v34.675c0 4.824 1.72 9.003 5.23 12.514 1.075 1.074 2.197 1.982 3.391 2.698zm7.69 157.303c-2.102 0-3.917-.764-5.445-2.293s-2.292-3.343-2.292-5.444V183.25c0-2.101.764-3.916 2.292-5.445s3.343-2.292 5.445-2.292h51.296c2.101 0 3.916.764 5.445 2.292s2.292 3.344 2.292 5.445v133.542c0 2.101-.764 3.916-2.292 5.444s-3.344 2.293-5.445 2.293zm1.433-164.778c-2.102 0-3.917-.764-5.445-2.292s-2.293-3.343-2.293-5.445v-34.675c0-2.101.765-3.916 2.293-5.445s3.343-2.292 5.445-2.292h48.43c2.102 0 3.916.764 5.445 2.292s2.292 3.344 2.292 5.445v34.675c0 2.102-.764 3.916-2.292 5.445s-3.343 2.292-5.445 2.292z" fill="#fff"/><path d="M1404.095 324.529c-2.102 0-3.917-.764-5.445-2.293s-2.292-3.343-2.292-5.444v-187.99c0-2.102.764-3.917 2.292-5.445s3.343-2.293 5.445-2.293h51.296c2.101 0 3.916.765 5.445 2.293s2.292 3.343 2.292 5.445v187.99c0 2.101-.764 3.916-2.292 5.444s-3.344 2.293-5.445 2.293z" fill="#fed141" fill-rule="nonzero"/><path d="M1404.095 334.535h51.296c4.824 0 9.003-1.72 12.513-5.23s5.23-7.69 5.23-12.513v-187.99c0-4.824-1.72-9.003-5.23-12.514s-7.69-5.23-12.513-5.23h-51.296c-4.824 0-9.003 1.72-12.514 5.23s-5.23 7.69-5.23 12.514v187.99c0 4.823 1.72 9.003 5.23 12.513s7.69 5.23 12.514 5.23zm0-10.006c-2.102 0-3.917-.764-5.445-2.293s-2.292-3.343-2.292-5.444v-187.99c0-2.102.764-3.917 2.292-5.445s3.343-2.293 5.445-2.293h51.296c2.101 0 3.916.765 5.445 2.293s2.292 3.343 2.292 5.445v187.99c0 2.101-.764 3.916-2.292 5.444s-3.344 2.293-5.445 2.293z" fill="#fff"/><path d="M1566.007 327.395c-25.027 0-44.944-6.162-59.75-18.484s-22.21-31.857-22.21-58.604v-2.006c.383-16.43 3.965-30.28 10.747-41.552s16.24-19.774 28.37-25.505 26.317-8.597 42.556-8.597c18.723 0 34.102 3.582 46.138 10.746s20.967 16.621 26.794 28.37 8.74 24.694 8.74 38.83v8.598c0 2.102-.764 3.916-2.292 5.445s-3.343 2.292-5.445 2.292h-85.398v1.433c0 3.821.335 7.021 1.003 9.6s1.863 4.538 3.583 5.875 3.916 2.006 6.59 2.006c1.147 0 2.15-.191 3.01-.573s1.719-1.003 2.579-1.863l2.722-2.722c1.72-1.72 3.152-2.818 4.299-3.296s2.865-.716 5.158-.716h54.162c1.91 0 3.486.573 4.728 1.72s1.767 2.674 1.576 4.584c-.19 3.63-1.863 7.976-5.015 13.04s-7.88 9.981-14.185 14.758-14.329 8.74-24.072 11.892-21.206 4.729-34.388 4.729zm-11.75-96.288h22.926v-.286c0-4.203-.43-7.642-1.29-10.317s-2.149-4.633-3.868-5.875-3.821-1.862-6.305-1.862-4.585.62-6.304 1.862-3.01 3.2-3.869 5.875-1.29 6.114-1.29 10.317z" fill="#fed141" fill-rule="nonzero"/><path d="M1650.712 273.042c.501-.43.98-.86 1.457-1.337 3.51-3.51 5.23-7.69 5.23-12.514v-8.597c0-15.761-3.296-30.185-9.792-43.272-6.662-13.445-16.86-24.31-30.639-32.526-13.373-7.952-30.424-12.155-51.248-12.155-17.863 0-33.48 3.248-46.83 9.552-13.97 6.615-24.86 16.406-32.669 29.398-7.594 12.609-11.75 28.083-12.155 46.472-.024.071-.024.167-.024.238v2.006c0 30.353 9.027 52.3 25.815 66.293 16.43 13.66 38.4 20.8 66.15 20.8 14.376 0 26.842-1.79 37.469-5.23 10.961-3.534 19.94-8.047 27.033-13.42 7.427-5.636 12.92-11.487 16.645-17.457 4.203-6.758 6.185-12.68 6.495-17.576.382-4.251-.692-7.786-2.937-10.675zm-84.705 54.353c-25.027 0-44.944-6.162-59.75-18.484s-22.21-31.857-22.21-58.604v-2.006c.383-16.43 3.965-30.28 10.747-41.552s16.24-19.774 28.37-25.505 26.317-8.597 42.556-8.597c18.723 0 34.102 3.582 46.138 10.746s20.967 16.621 26.794 28.37 8.74 24.694 8.74 38.83v8.598c0 2.102-.764 3.916-2.292 5.445s-3.343 2.292-5.445 2.292h-85.398v1.433c0 3.821.335 7.021 1.003 9.6s1.863 4.538 3.583 5.875 3.916 2.006 6.59 2.006c1.147 0 2.15-.191 3.01-.573s1.719-1.003 2.579-1.863l2.722-2.722c1.72-1.72 3.152-2.818 4.299-3.296s2.865-.716 5.158-.716h54.162c1.91 0 3.486.573 4.728 1.72s1.767 2.674 1.576 4.584c-.19 3.63-1.863 7.976-5.015 13.04s-7.88 9.981-14.185 14.758-14.329 8.74-24.072 11.892-21.206 4.729-34.388 4.729zm-11.75-96.288h22.926v-.286c0-4.203-.43-7.642-1.29-10.317s-2.149-4.633-3.868-5.875-3.821-1.862-6.305-1.862-4.585.62-6.304 1.862-3.01 3.2-3.869 5.875-1.29 6.114-1.29 10.317z" fill="#fff"/><path d="M189.994 327.395c-14.52 0-27.702-2.532-39.546-7.594s-21.398-12.466-28.657-22.21-11.272-21.683-12.036-35.82c-.191-3.058-.287-6.879-.287-11.464s.096-8.501.287-11.749c.764-14.137 4.728-26.126 11.892-35.964s16.717-17.29 28.657-22.353 25.17-7.594 39.69-7.594c15.093 0 27.94 2.15 38.544 6.448s19.2 9.552 25.791 15.761 11.463 12.37 14.615 18.484 4.824 11.08 5.015 14.902c.191 2.101-.525 3.916-2.15 5.444s-3.486 2.293-5.587 2.293H210.34c-2.102 0-3.774-.525-5.015-1.576s-2.34-2.436-3.296-4.155c-1.337-2.675-2.722-4.777-4.155-6.305s-3.582-2.293-6.448-2.293c-4.394 0-7.355 1.624-8.884 4.872s-2.388 7.737-2.579 13.469c-.19 8.215-.19 14.997 0 20.346.382 6.114 1.29 10.651 2.723 13.612s4.346 4.442 8.74 4.442c3.439 0 5.78-.764 7.021-2.292s2.436-3.63 3.582-6.305c.764-1.72 1.815-3.104 3.152-4.155s3.057-1.576 5.159-1.576h55.88c2.102 0 3.965.764 5.589 2.292s2.34 3.344 2.15 5.445c-.192 2.484-1.195 5.97-3.01 10.46s-4.68 9.313-8.597 14.472-9.122 10.077-15.618 14.758-14.424 8.502-23.785 11.463-20.347 4.442-32.956 4.442z" fill="#fed141" fill-rule="nonzero"/><path d="M191.618 268.385h-.406c-.692-2.077-1.027-4.943-1.266-8.525-.167-5.182-.167-11.702.024-19.583.12-3.534.454-6.423 1.266-8.62h.072c.597.835 1.194 1.862 1.79 3.056.048.143.12.263.192.382 1.6 2.89 3.486 5.182 5.588 6.95 2.866 2.412 6.615 3.94 11.463 3.94h55.88c4.681 0 8.837-1.624 12.443-5.015 4.012-3.773 5.683-8.287 5.277-13.445-.286-4.8-2.149-11.104-6.113-18.77-3.606-6.997-9.099-14.09-16.645-21.182-7.38-6.974-16.98-12.92-28.896-17.744-11.63-4.728-25.72-7.188-42.293-7.188-15.952 0-30.472 2.842-43.582 8.382-13.708 5.827-24.621 14.4-32.836 25.672-8.24 11.32-12.92 25.05-13.803 41.29-.191 3.415-.31 7.522-.31 12.322 0 4.824.119 8.86.31 12.084.883 16.239 5.635 29.947 13.994 41.17 8.31 11.153 19.2 19.654 32.764 25.434 13.015 5.564 27.51 8.406 43.463 8.406 13.78 0 25.744-1.672 35.965-4.92 10.483-3.32 19.343-7.642 26.627-12.872 7.379-5.325 13.278-10.96 17.743-16.836 4.514-5.97 7.785-11.582 9.887-16.764 2.316-5.707 3.463-10.197 3.701-13.373.478-5.206-1.218-9.767-5.253-13.564-3.606-3.391-7.762-5.015-12.442-5.015H210.34c-4.633 0-8.383 1.385-11.344 3.725-2.555 2.006-4.633 4.633-6.113 7.952 0 .048-.024.072-.048.12-.406.955-.788 1.79-1.218 2.531zm-1.624 59.01c-14.52 0-27.702-2.532-39.546-7.594s-21.398-12.466-28.657-22.21-11.272-21.683-12.036-35.82c-.191-3.058-.287-6.879-.287-11.464s.096-8.501.287-11.749c.764-14.137 4.728-26.126 11.892-35.964s16.717-17.29 28.657-22.353 25.17-7.594 39.69-7.594c15.093 0 27.94 2.15 38.544 6.448s19.2 9.552 25.791 15.761 11.463 12.37 14.615 18.484 4.824 11.08 5.015 14.902c.191 2.101-.525 3.916-2.15 5.444s-3.486 2.293-5.587 2.293H210.34c-2.102 0-3.774-.525-5.015-1.576s-2.34-2.436-3.296-4.155c-1.337-2.675-2.722-4.777-4.155-6.305s-3.582-2.293-6.448-2.293c-4.394 0-7.355 1.624-8.884 4.872s-2.388 7.737-2.579 13.469c-.19 8.215-.19 14.997 0 20.346.382 6.114 1.29 10.651 2.723 13.612s4.346 4.442 8.74 4.442c3.439 0 5.78-.764 7.021-2.292s2.436-3.63 3.582-6.305c.764-1.72 1.815-3.104 3.152-4.155s3.057-1.576 5.159-1.576h55.88c2.102 0 3.965.764 5.589 2.292s2.34 3.344 2.15 5.445c-.192 2.484-1.195 5.97-3.01 10.46s-4.68 9.313-8.597 14.472-9.122 10.077-15.618 14.758-14.424 8.502-23.785 11.463-20.347 4.442-32.956 4.442z" fill="#fff"/><path d="M339.87 327.395c-10.89 0-20.537-2.006-28.943-6.018s-14.95-9.457-19.63-16.335-7.021-14.615-7.021-23.212c0-13.946 5.683-24.884 17.05-32.812s26.604-13.517 45.708-16.765l30.377-4.871v-.287c0-4.967-.43-8.597-1.29-10.89s-3.295-3.438-7.307-3.438c-3.248 0-5.732.764-7.451 2.292l-5.158 4.585c-1.72 1.528-4.108 2.293-7.165 2.293h-48.716c-1.91 0-3.487-.573-4.729-1.72s-1.767-2.674-1.576-4.585c.191-3.63 1.72-7.88 4.585-12.752s7.308-9.6 13.326-14.185 13.755-8.406 23.212-11.463 20.872-4.585 34.245-4.585c12.99 0 24.31 1.385 33.958 4.155s17.624 6.782 23.929 12.036 11.033 11.75 14.185 19.487 4.728 16.478 4.728 26.221v82.246c0 2.101-.764 3.916-2.292 5.444s-3.343 2.293-5.445 2.293H388.3c-2.101 0-3.916-.764-5.444-2.293s-2.293-3.343-2.293-5.444v-8.024c-2.675 3.82-6.066 7.116-10.173 9.886s-8.74 4.92-13.899 6.448-10.698 2.293-16.62 2.293zm19.773-42.413c3.821 0 7.117-.764 9.887-2.292s4.92-3.964 6.448-7.308 2.292-7.498 2.292-12.466v-.286l-16.907 3.725c-4.967 1.147-8.31 2.675-10.03 4.585s-2.58 3.917-2.58 6.018c0 1.338.43 2.627 1.29 3.869s2.102 2.245 3.726 3.009 3.582 1.146 5.874 1.146z" fill="#fed141" fill-rule="nonzero"/><path d="M311.739 231.943c-5.995 2.58-11.368 5.54-16.12 8.884-14.233 9.91-21.35 23.57-21.35 41.003 0 10.675 2.938 20.299 8.765 28.848 5.636 8.263 13.469 14.902 23.594 19.726 9.648 4.609 20.729 6.997 33.242 6.997 6.95 0 13.421-.932 19.463-2.723 5.564-1.648 10.627-3.916 15.188-6.782.382.478.812.955 1.266 1.41 3.51 3.51 7.69 5.229 12.513 5.229h50.15c4.824 0 9.003-1.72 12.514-5.23s5.23-7.69 5.23-12.513v-82.246c0-11.152-1.863-21.134-5.47-29.994-3.796-9.29-9.48-17.099-17.05-23.403-7.26-6.066-16.43-10.77-27.559-13.97-10.435-2.986-22.686-4.538-36.728-4.538-14.567 0-27.01 1.743-37.326 5.087-10.675 3.438-19.391 7.832-26.197 13.015-7.212 5.492-12.442 11.224-15.88 17.074-3.798 6.472-5.637 12.203-5.923 17.051-.478 5.302 1.265 9.48 4.752 12.705 3.033 2.794 6.83 4.37 11.51 4.37zm28.131 95.452c-10.89 0-20.537-2.006-28.943-6.018s-14.95-9.457-19.63-16.335-7.021-14.615-7.021-23.212c0-13.946 5.683-24.884 17.05-32.812s26.604-13.517 45.708-16.765l30.377-4.871v-.287c0-4.967-.43-8.597-1.29-10.89s-3.295-3.438-7.307-3.438c-3.248 0-5.732.764-7.451 2.292l-5.158 4.585c-1.72 1.528-4.108 2.293-7.165 2.293h-48.716c-1.91 0-3.487-.573-4.729-1.72s-1.767-2.674-1.576-4.585c.191-3.63 1.72-7.88 4.585-12.752s7.308-9.6 13.326-14.185 13.755-8.406 23.212-11.463 20.872-4.585 34.245-4.585c12.99 0 24.31 1.385 33.958 4.155s17.624 6.782 23.929 12.036 11.033 11.75 14.185 19.487 4.728 16.478 4.728 26.221v82.246c0 2.101-.764 3.916-2.292 5.444s-3.343 2.293-5.445 2.293H388.3c-2.101 0-3.916-.764-5.444-2.293s-2.293-3.343-2.293-5.444v-8.024c-2.675 3.82-6.066 7.116-10.173 9.886s-8.74 4.92-13.899 6.448-10.698 2.293-16.62 2.293zm30.21-62.95-8.717 1.91c-4.967 1.147-8.31 2.675-10.03 4.585s-2.58 3.917-2.58 6.018c0 1.338.43 2.627 1.29 3.869s2.102 2.245 3.726 3.009 3.582 1.146 5.874 1.146c3.821 0 7.117-.764 9.887-2.292s4.92-3.964 6.448-7.308c.525-1.146.955-2.388 1.313-3.75z" fill="#fff"/><path d="M478.283 324.529c-2.101 0-3.916-.764-5.445-2.293s-2.292-3.343-2.292-5.444V183.25c0-2.101.764-3.916 2.292-5.445s3.344-2.292 5.445-2.292h47.284c2.102 0 3.917.764 5.445 2.292s2.293 3.344 2.293 5.445v9.457c3.247-4.394 8.358-8.74 15.331-13.039s15.14-6.639 24.502-7.021c22.543-.764 37.636 7.069 45.278 23.499 4.394-6.687 10.603-12.275 18.627-16.765s16.43-6.734 25.218-6.734c9.743 0 18.58 2.197 26.508 6.591s14.28 11.272 19.056 20.633 7.165 21.588 7.165 36.681v80.24c0 2.101-.764 3.916-2.293 5.444s-3.343 2.293-5.445 2.293h-50.436c-2.101 0-3.916-.764-5.445-2.293s-2.292-3.343-2.292-5.444v-78.807c0-3.057-.478-5.636-1.433-7.737s-2.245-3.678-3.869-4.729-3.677-1.576-6.161-1.576c-2.293 0-4.299.525-6.018 1.576s-3.009 2.627-3.869 4.729-1.29 4.68-1.29 7.737v78.807c0 2.101-.763 3.916-2.292 5.444s-3.343 2.293-5.445 2.293h-50.436c-2.101 0-3.916-.764-5.445-2.293s-2.292-3.343-2.292-5.444v-78.807c0-3.057-.478-5.636-1.433-7.737s-2.245-3.678-3.869-4.729-3.677-1.576-6.161-1.576c-2.293 0-4.299.573-6.018 1.72s-3.057 2.722-4.012 4.728-1.433 4.537-1.433 7.594v78.807c0 2.101-.764 3.916-2.292 5.444s-3.344 2.293-5.445 2.293z" fill="#fed141" fill-rule="nonzero"/><path d="M540.182 173.22a18.396 18.396 0 0 0-2.101-2.483c-3.51-3.51-7.69-5.23-12.514-5.23h-47.284c-4.824 0-9.003 1.72-12.513 5.23s-5.23 7.69-5.23 12.513v133.542c0 4.823 1.72 9.003 5.23 12.513s7.69 5.23 12.513 5.23h51.583c4.824 0 9.003-1.72 12.513-5.23s5.23-7.69 5.23-12.513v-78.807c0-1.314.048-2.436.454-3.296.143-.286.287-.549.525-.716.144-.072.31-.024.478-.024.239 0 .62.048.812.072.048.095.072.238.12.358.43.979.525 2.197.525 3.606v78.807c0 4.823 1.72 9.003 5.23 12.513s7.69 5.23 12.513 5.23h50.436c4.824 0 9.003-1.72 12.514-5.23s5.23-7.69 5.23-12.513v-78.807c0-1.552.095-2.89.549-3.94l.024-.072c.191-.048.382-.024.597-.024.239 0 .62.048.812.072.048.095.072.238.12.358.43.979.525 2.197.525 3.606v78.807c0 4.823 1.72 9.003 5.23 12.513s7.69 5.23 12.513 5.23h50.436c4.824 0 9.003-1.72 12.514-5.23s5.23-7.69 5.23-12.513v-80.24c0-16.98-2.89-30.687-8.263-41.218-5.755-11.32-13.54-19.535-23.117-24.836-9.385-5.206-19.82-7.857-31.355-7.857-10.484 0-20.514 2.65-30.09 8.024-4.728 2.627-8.931 5.612-12.585 8.931-10.269-11.797-25.744-17.648-46.783-16.955-.023 0-.047.024-.071.024-11.224.454-20.991 3.343-29.35 8.501a81.975 81.975 0 0 0-3.2 2.054zm-61.899 151.31c-2.101 0-3.916-.764-5.445-2.293s-2.292-3.343-2.292-5.444V183.25c0-2.101.764-3.916 2.292-5.445s3.344-2.292 5.445-2.292h47.284c2.102 0 3.917.764 5.445 2.292s2.293 3.344 2.293 5.445v9.457c3.247-4.394 8.358-8.74 15.331-13.039s15.14-6.639 24.502-7.021c22.543-.764 37.636 7.069 45.278 23.499 4.394-6.687 10.603-12.275 18.627-16.765s16.43-6.734 25.218-6.734c9.743 0 18.58 2.197 26.508 6.591s14.28 11.272 19.056 20.633 7.165 21.588 7.165 36.681v80.24c0 2.101-.764 3.916-2.293 5.444s-3.343 2.293-5.445 2.293h-50.436c-2.101 0-3.916-.764-5.445-2.293s-2.292-3.343-2.292-5.444v-78.807c0-3.057-.478-5.636-1.433-7.737s-2.245-3.678-3.869-4.729-3.677-1.576-6.161-1.576c-2.293 0-4.299.525-6.018 1.576s-3.009 2.627-3.869 4.729-1.29 4.68-1.29 7.737v78.807c0 2.101-.763 3.916-2.292 5.444s-3.343 2.293-5.445 2.293h-50.436c-2.101 0-3.916-.764-5.445-2.293s-2.292-3.343-2.292-5.444v-78.807c0-3.057-.478-5.636-1.433-7.737s-2.245-3.678-3.869-4.729-3.677-1.576-6.161-1.576c-2.293 0-4.299.573-6.018 1.72s-3.057 2.722-4.012 4.728-1.433 4.537-1.433 7.594v78.807c0 2.101-.764 3.916-2.292 5.444s-3.344 2.293-5.445 2.293z" fill="#fff"/><path d="M895.35 90.476c25.677-33.827 70.88-44.322 102.678-22.874s39.001 67.291 17.256 103.77c38.078 2.95 64.41 38.072 59.014 80.366-5.395 42.294-40.62 76.879-79.364 79.159 12.4 36.776-6.47 82.392-43.664 103.238-37.193 20.847-79.621 9.588-96.62-24.611-25.678 33.827-70.88 44.321-102.679 22.873s-39-67.29-17.256-103.77c-38.077-2.95-64.41-38.072-59.014-80.366 5.395-42.294 40.62-76.878 79.364-79.158-12.4-36.777 6.47-82.393 43.664-103.239s79.622-9.588 96.621 24.612zm25.785 91.125c-32.928-22.21-80.335-9.595-105.798 28.156s-19.402 86.431 13.527 108.642 80.335 9.594 105.798-28.156 19.402-86.432-13.527-108.642z" fill="#fff"/><g fill="#fed141"><path d="M895.35 90.473c25.676-33.826 70.88-44.321 102.678-22.873s39 67.291 17.257 103.77c38.076 2.95 64.408 38.071 59.013 80.365s-40.62 76.881-79.365 79.159c12.4 36.778-6.471 82.393-43.664 103.239s-79.622 9.588-96.62-24.61c-25.679 33.826-70.881 44.32-102.679 22.872s-39.001-67.29-17.255-103.77c-38.078-2.95-64.41-38.072-59.015-80.366s40.62-76.878 79.365-79.159c-12.4-36.775 6.47-82.392 43.664-103.238s79.622-9.588 96.622 24.611zm-9.042 5.793c1.473 2.962 4.358 4.76 7.692 4.788 3.333.029 6.67-1.712 8.895-4.641 22.248-29.313 61.428-38.277 88.98-19.693s33.92 58.27 15.077 89.88c-1.884 3.16-2.248 6.905-.972 9.986 1.275 3.08 4.023 5.082 7.32 5.337 32.993 2.557 55.707 33.079 51.033 69.728-4.676 36.648-35.118 66.702-68.692 68.68-3.354.195-6.606 2.149-8.662 5.198-2.058 3.05-2.65 6.796-1.576 9.98 10.745 31.868-5.719 71.355-37.947 89.418-32.23 18.063-69.035 8.435-83.766-21.199-1.471-2.96-4.358-4.759-7.69-4.787-3.335-.03-6.673 1.714-8.897 4.644-22.248 29.31-61.428 38.274-88.98 19.689s-33.92-58.27-15.077-89.877c1.883-3.16 2.248-6.908.974-9.988-1.277-3.08-4.023-5.082-7.322-5.338-32.993-2.557-55.708-33.076-51.033-69.724 4.674-36.649 35.118-66.706 68.69-68.681 3.355-.198 6.606-2.15 8.664-5.2 2.057-3.05 2.65-6.796 1.575-9.98-10.744-31.869 5.719-71.353 37.948-89.416 32.228-18.063 69.035-8.437 83.766 21.196z"/><path d="M921.134 181.603c-32.932-22.213-80.33-9.6-105.795 28.155s-19.406 86.426 13.527 108.639 80.33 9.599 105.795-28.155 19.406-86.426-13.527-108.64zm-6.148 9.116c28.533 19.246 33.787 61.448 11.723 94.159s-63.162 43.648-91.695 24.403-33.787-61.448-11.723-94.16 63.162-43.648 91.695-24.402z"/></g></svg>