<svg clip-rule="evenodd" fill-rule="evenodd" stroke-linejoin="round" stroke-miterlimit="2" viewBox="0 0 500 500" xmlns="http://www.w3.org/2000/svg"><path d="M270.35 90.476c25.677-33.827 70.88-44.322 102.678-22.874s39.001 67.291 17.256 103.77c38.078 2.95 64.41 38.072 59.014 80.366-5.395 42.294-40.62 76.879-79.364 79.159 12.4 36.776-6.47 82.392-43.664 103.238-37.193 20.847-79.621 9.588-96.62-24.611-25.678 33.827-70.88 44.321-102.679 22.873s-39-67.29-17.256-103.77c-38.077-2.95-64.41-38.072-59.014-80.366 5.395-42.294 40.62-76.878 79.364-79.158-12.4-36.777 6.47-82.393 43.664-103.239s79.622-9.588 96.621 24.612zm25.785 91.125c-32.928-22.21-80.335-9.595-105.798 28.156s-19.402 86.431 13.527 108.642 80.335 9.594 105.798-28.156 19.402-86.432-13.527-108.642z" fill="#fff"/><g fill="#fed141"><path d="M270.35 90.473c25.676-33.826 70.88-44.321 102.678-22.873s39 67.291 17.257 103.77c38.076 2.95 64.408 38.071 59.013 80.365s-40.62 76.881-79.365 79.159c12.4 36.778-6.471 82.393-43.664 103.239s-79.622 9.588-96.62-24.61c-25.679 33.826-70.881 44.32-102.679 22.872s-39.001-67.29-17.255-103.77c-38.078-2.95-64.41-38.072-59.015-80.366s40.62-76.878 79.365-79.159c-12.4-36.775 6.47-82.392 43.664-103.238s79.622-9.588 96.622 24.611zm-9.042 5.793c1.473 2.962 4.358 4.76 7.692 4.788 3.333.029 6.67-1.712 8.895-4.641 22.248-29.313 61.428-38.277 88.98-19.693s33.92 58.27 15.077 89.88c-1.884 3.16-2.248 6.905-.972 9.986 1.275 3.08 4.023 5.082 7.32 5.337 32.993 2.557 55.707 33.079 51.033 69.728-4.676 36.648-35.118 66.702-68.692 68.68-3.354.195-6.606 2.149-8.662 5.198-2.058 3.05-2.65 6.796-1.576 9.98 10.745 31.868-5.719 71.355-37.947 89.418-32.23 18.063-69.035 8.435-83.766-21.199-1.471-2.96-4.358-4.759-7.69-4.787-3.335-.03-6.673 1.714-8.897 4.644-22.248 29.31-61.428 38.274-88.98 19.689s-33.92-58.27-15.077-89.877c1.883-3.16 2.248-6.908.974-9.988-1.277-3.08-4.023-5.082-7.322-5.338-32.993-2.557-55.708-33.076-51.033-69.724 4.674-36.649 35.118-66.706 68.69-68.681 3.355-.198 6.606-2.15 8.664-5.2 2.057-3.05 2.65-6.796 1.575-9.98-10.744-31.869 5.719-71.353 37.948-89.416 32.228-18.063 69.035-8.437 83.766 21.196z"/><path d="M296.134 181.603c-32.932-22.213-80.33-9.6-105.795 28.155s-19.406 86.426 13.527 108.639 80.33 9.599 105.795-28.155 19.406-86.426-13.527-108.64zm-6.148 9.116c28.533 19.246 33.787 61.448 11.723 94.159s-63.162 43.648-91.695 24.403-33.787-61.448-11.723-94.16 63.162-43.648 91.695-24.402z"/></g></svg>