<svg clip-rule="evenodd" fill-rule="evenodd" stroke-linejoin="round" stroke-miterlimit="2" viewBox="0 0 1750 500" xmlns="http://www.w3.org/2000/svg"><path d="M1042.73 324.529c-2.1 0-3.916-.764-5.444-2.293s-2.293-3.343-2.293-5.444V183.25c0-2.101.764-3.916 2.293-5.445s3.343-2.292 5.445-2.292h47.284c2.101 0 3.916.764 5.444 2.292s2.293 3.344 2.293 5.445v9.457c3.248-4.394 8.358-8.74 15.331-13.039s15.14-6.639 24.502-7.021c22.544-.764 37.636 7.069 45.278 23.499 4.394-6.687 10.603-12.275 18.627-16.765s16.43-6.734 25.218-6.734c9.744 0 18.58 2.197 26.508 6.591s14.28 11.272 19.057 20.633 7.164 21.588 7.164 36.681v80.24c0 2.101-.764 3.916-2.292 5.444s-3.344 2.293-5.445 2.293h-50.436c-2.102 0-3.917-.764-5.445-2.293s-2.293-3.343-2.293-5.444v-78.807c0-3.057-.477-5.636-1.433-7.737s-2.245-3.678-3.868-4.729-3.678-1.576-6.162-1.576c-2.292 0-4.298.525-6.018 1.576s-3.009 2.627-3.868 4.729-1.29 4.68-1.29 7.737v78.807c0 2.101-.764 3.916-2.292 5.444s-3.344 2.293-5.445 2.293h-50.436c-2.102 0-3.917-.764-5.445-2.293s-2.293-3.343-2.293-5.444v-78.807c0-3.057-.477-5.636-1.433-7.737s-2.245-3.678-3.868-4.729-3.678-1.576-6.162-1.576c-2.292 0-4.298.573-6.018 1.72s-3.056 2.722-4.012 4.728-1.432 4.537-1.432 7.594v78.807c0 2.101-.765 3.916-2.293 5.444s-3.343 2.293-5.445 2.293zm268.803 0c-2.102 0-3.917-.764-5.445-2.293s-2.292-3.343-2.292-5.444V183.25c0-2.101.764-3.916 2.292-5.445s3.343-2.292 5.445-2.292h51.296c2.101 0 3.916.764 5.445 2.292s2.292 3.344 2.292 5.445v133.542c0 2.101-.764 3.916-2.292 5.444s-3.344 2.293-5.445 2.293zm1.433-164.778c-2.102 0-3.917-.764-5.445-2.292s-2.293-3.343-2.293-5.445v-34.675c0-2.101.765-3.916 2.293-5.445s3.343-2.292 5.445-2.292h48.43c2.102 0 3.917.764 5.445 2.292s2.292 3.344 2.292 5.445v34.675c0 2.102-.764 3.916-2.292 5.445s-3.343 2.292-5.445 2.292zm91.129 164.778c-2.102 0-3.917-.764-5.445-2.293s-2.292-3.343-2.292-5.444v-187.99c0-2.102.764-3.917 2.292-5.445s3.343-2.293 5.445-2.293h51.296c2.101 0 3.916.765 5.445 2.293s2.292 3.343 2.292 5.445v187.99c0 2.101-.764 3.916-2.292 5.444s-3.344 2.293-5.445 2.293zm161.912 2.866c-25.027 0-44.944-6.162-59.75-18.484s-22.21-31.857-22.21-58.604v-2.006c.383-16.43 3.965-30.28 10.747-41.552s16.24-19.774 28.37-25.505 26.317-8.597 42.556-8.597c18.723 0 34.102 3.582 46.138 10.746s20.967 16.621 26.794 28.37 8.74 24.694 8.74 38.83v8.598c0 2.102-.764 3.916-2.292 5.445s-3.343 2.292-5.445 2.292h-85.398v1.433c0 3.821.335 7.021 1.003 9.6s1.863 4.538 3.583 5.875 3.916 2.006 6.59 2.006c1.147 0 2.15-.191 3.01-.573s1.719-1.003 2.579-1.863l2.722-2.722c1.72-1.72 3.152-2.818 4.299-3.296s2.865-.716 5.158-.716h54.162c1.91 0 3.486.573 4.728 1.72s1.767 2.674 1.576 4.584c-.19 3.63-1.863 7.976-5.015 13.04s-7.88 9.981-14.185 14.758-14.329 8.74-24.072 11.892-21.206 4.729-34.388 4.729zm-11.75-96.288h22.926v-.286c0-4.203-.43-7.642-1.29-10.317s-2.149-4.633-3.868-5.875-3.821-1.862-6.305-1.862-4.585.62-6.304 1.862-3.01 3.2-3.869 5.875-1.29 6.114-1.29 10.317zM189.994 327.395c-14.52 0-27.702-2.532-39.546-7.594s-21.398-12.466-28.657-22.21-11.272-21.683-12.036-35.82c-.191-3.058-.287-6.879-.287-11.464s.096-8.501.287-11.749c.764-14.137 4.728-26.126 11.892-35.964s16.717-17.29 28.657-22.353 25.17-7.594 39.69-7.594c15.093 0 27.94 2.15 38.544 6.448s19.2 9.552 25.791 15.761 11.463 12.37 14.615 18.484 4.824 11.08 5.015 14.902c.191 2.101-.525 3.916-2.15 5.444s-3.486 2.293-5.587 2.293H210.34c-2.102 0-3.774-.525-5.015-1.576s-2.34-2.436-3.296-4.155c-1.337-2.675-2.722-4.777-4.155-6.305s-3.582-2.293-6.448-2.293c-4.394 0-7.355 1.624-8.884 4.872s-2.388 7.737-2.579 13.469c-.19 8.215-.19 14.997 0 20.346.382 6.114 1.29 10.651 2.723 13.612s4.346 4.442 8.74 4.442c3.439 0 5.78-.764 7.021-2.292s2.436-3.63 3.582-6.305c.764-1.72 1.815-3.104 3.152-4.155s3.057-1.576 5.159-1.576h55.88c2.102 0 3.965.764 5.589 2.292s2.34 3.344 2.15 5.445c-.192 2.484-1.195 5.97-3.01 10.46s-4.68 9.313-8.597 14.472-9.122 10.077-15.618 14.758-14.424 8.502-23.785 11.463-20.347 4.442-32.956 4.442zm149.876 0c-10.89 0-20.537-2.006-28.943-6.018s-14.95-9.457-19.63-16.335-7.021-14.615-7.021-23.212c0-13.946 5.683-24.884 17.05-32.812s26.604-13.517 45.708-16.765l30.377-4.871v-.287c0-4.967-.43-8.597-1.29-10.89s-3.295-3.438-7.307-3.438c-3.248 0-5.732.764-7.451 2.292l-5.158 4.585c-1.72 1.528-4.108 2.293-7.165 2.293h-48.716c-1.91 0-3.487-.573-4.729-1.72s-1.767-2.674-1.576-4.585c.191-3.63 1.72-7.88 4.585-12.752s7.308-9.6 13.326-14.185 13.755-8.406 23.212-11.463 20.872-4.585 34.245-4.585c12.99 0 24.31 1.385 33.958 4.155s17.624 6.782 23.929 12.036 11.033 11.75 14.185 19.487 4.728 16.478 4.728 26.221v82.246c0 2.101-.764 3.916-2.292 5.444s-3.343 2.293-5.445 2.293H388.3c-2.101 0-3.916-.764-5.444-2.293s-2.293-3.343-2.293-5.444v-8.024c-2.675 3.82-6.066 7.116-10.173 9.886s-8.74 4.92-13.899 6.448-10.698 2.293-16.62 2.293zm19.773-42.413c3.821 0 7.117-.764 9.887-2.292s4.92-3.964 6.448-7.308 2.292-7.498 2.292-12.466v-.286l-16.907 3.725c-4.967 1.147-8.31 2.675-10.03 4.585s-2.58 3.917-2.58 6.018c0 1.338.43 2.627 1.29 3.869s2.102 2.245 3.726 3.009 3.582 1.146 5.874 1.146zm118.64 39.547c-2.101 0-3.916-.764-5.445-2.293s-2.292-3.343-2.292-5.444V183.25c0-2.101.764-3.916 2.292-5.445s3.344-2.292 5.445-2.292h47.284c2.102 0 3.917.764 5.445 2.292s2.293 3.344 2.293 5.445v9.457c3.247-4.394 8.358-8.74 15.331-13.039s15.14-6.639 24.502-7.021c22.543-.764 37.636 7.069 45.278 23.499 4.394-6.687 10.603-12.275 18.627-16.765s16.43-6.734 25.218-6.734c9.743 0 18.58 2.197 26.508 6.591s14.28 11.272 19.056 20.633 7.165 21.588 7.165 36.681v80.24c0 2.101-.764 3.916-2.293 5.444s-3.343 2.293-5.445 2.293h-50.436c-2.101 0-3.916-.764-5.445-2.293s-2.292-3.343-2.292-5.444v-78.807c0-3.057-.478-5.636-1.433-7.737s-2.245-3.678-3.869-4.729-3.677-1.576-6.161-1.576c-2.293 0-4.299.525-6.018 1.576s-3.009 2.627-3.869 4.729-1.29 4.68-1.29 7.737v78.807c0 2.101-.763 3.916-2.292 5.444s-3.343 2.293-5.445 2.293h-50.436c-2.101 0-3.916-.764-5.445-2.293s-2.292-3.343-2.292-5.444v-78.807c0-3.057-.478-5.636-1.433-7.737s-2.245-3.678-3.869-4.729-3.677-1.576-6.161-1.576c-2.293 0-4.299.573-6.018 1.72s-3.057 2.722-4.012 4.728-1.433 4.537-1.433 7.594v78.807c0 2.101-.764 3.916-2.292 5.444s-3.344 2.293-5.445 2.293z" fill="#fed141" fill-rule="nonzero"/><path d="M895.35 90.476c25.677-33.827 70.88-44.322 102.678-22.874s39.001 67.291 17.256 103.77c38.078 2.95 64.41 38.072 59.014 80.366-5.395 42.294-40.62 76.879-79.364 79.159 12.4 36.776-6.47 82.392-43.664 103.238-37.193 20.847-79.621 9.588-96.62-24.611-25.678 33.827-70.88 44.321-102.679 22.873s-39-67.29-17.256-103.77c-38.077-2.95-64.41-38.072-59.014-80.366 5.395-42.294 40.62-76.878 79.364-79.158-12.4-36.777 6.47-82.393 43.664-103.239s79.622-9.588 96.621 24.612zm25.785 91.125c-32.928-22.21-80.335-9.595-105.798 28.156s-19.402 86.431 13.527 108.642 80.335 9.594 105.798-28.156 19.402-86.432-13.527-108.642z" fill="#fff"/><g fill="#fed141"><path d="M895.35 90.473c25.676-33.826 70.88-44.321 102.678-22.873s39 67.291 17.257 103.77c38.076 2.95 64.408 38.071 59.013 80.365s-40.62 76.881-79.365 79.159c12.4 36.778-6.471 82.393-43.664 103.239s-79.622 9.588-96.62-24.61c-25.679 33.826-70.881 44.32-102.679 22.872s-39.001-67.29-17.255-103.77c-38.078-2.95-64.41-38.072-59.015-80.366s40.62-76.878 79.365-79.159c-12.4-36.775 6.47-82.392 43.664-103.238s79.622-9.588 96.622 24.611zm-9.042 5.793c1.473 2.962 4.358 4.76 7.692 4.788 3.333.029 6.67-1.712 8.895-4.641 22.248-29.313 61.428-38.277 88.98-19.693s33.92 58.27 15.077 89.88c-1.884 3.16-2.248 6.905-.972 9.986 1.275 3.08 4.023 5.082 7.32 5.337 32.993 2.557 55.707 33.079 51.033 69.728-4.676 36.648-35.118 66.702-68.692 68.68-3.354.195-6.606 2.149-8.662 5.198-2.058 3.05-2.65 6.796-1.576 9.98 10.745 31.868-5.719 71.355-37.947 89.418-32.23 18.063-69.035 8.435-83.766-21.199-1.471-2.96-4.358-4.759-7.69-4.787-3.335-.03-6.673 1.714-8.897 4.644-22.248 29.31-61.428 38.274-88.98 19.689s-33.92-58.27-15.077-89.877c1.883-3.16 2.248-6.908.974-9.988-1.277-3.08-4.023-5.082-7.322-5.338-32.993-2.557-55.708-33.076-51.033-69.724 4.674-36.649 35.118-66.706 68.69-68.681 3.355-.198 6.606-2.15 8.664-5.2 2.057-3.05 2.65-6.796 1.575-9.98-10.744-31.869 5.719-71.353 37.948-89.416 32.228-18.063 69.035-8.437 83.766 21.196z"/><path d="M921.134 181.603c-32.932-22.213-80.33-9.6-105.795 28.155s-19.406 86.426 13.527 108.639 80.33 9.599 105.795-28.155 19.406-86.426-13.527-108.64zm-6.148 9.116c28.533 19.246 33.787 61.448 11.723 94.159s-63.162 43.648-91.695 24.403-33.787-61.448-11.723-94.16 63.162-43.648 91.695-24.402z"/></g></svg>