<svg fill-rule="evenodd" viewBox="0 0 1080 1080" xmlns="http://www.w3.org/2000/svg"><path d="M581.623 213.715c52.518-69.188 144.974-90.653 210.012-46.784s79.77 137.633 35.295 212.246c77.881 6.034 131.74 77.869 120.704 164.375-11.035 86.507-83.083 157.244-162.327 161.907 25.361 75.222-13.235 168.522-89.31 211.159-76.072 42.638-162.853 19.611-197.622-50.339-52.519 69.188-144.974 90.653-210.013 46.784s-79.77-137.633-35.295-212.245c-77.88-6.034-131.74-77.87-120.704-164.376 11.035-86.507 83.083-157.244 162.328-161.907-25.362-75.221 13.235-168.521 89.309-211.159 76.073-42.638 162.853-19.61 197.623 50.339zm52.74 186.382c-67.35-45.428-164.314-19.623-216.395 57.59s-39.683 176.782 27.667 222.21 164.314 19.623 216.394-57.59 39.684-176.781-27.667-222.21z" fill="#fff"/><g fill="#ffdf4f"><path d="M581.632 213.712c52.516-69.186 144.974-90.653 210.012-46.785s79.769 137.636 35.296 212.247c77.88 6.032 131.738 77.869 120.703 164.375s-83.084 157.249-162.329 161.908c25.363 75.225-13.236 168.522-89.309 211.16s-162.855 19.61-197.622-50.337c-52.522 69.188-144.977 90.65-210.014 46.782s-79.772-137.63-35.294-212.245c-77.882-6.034-131.741-77.87-120.706-164.377s83.084-157.242 162.329-161.908c-25.363-75.218 13.236-168.522 89.309-211.16s162.855-19.61 197.625 50.34zm-18.496 11.848c3.013 6.059 8.914 9.734 15.734 9.794 6.817.058 13.642-3.503 18.192-9.494 45.507-59.956 125.643-78.29 181.999-40.278s69.375 119.181 30.835 183.836c-3.853 6.462-4.598 14.124-1.988 20.424 2.608 6.299 8.229 10.396 14.973 10.917 67.483 5.23 113.94 67.657 104.38 142.617-9.563 74.958-71.83 136.43-140.498 140.475-6.86.4-13.512 4.396-17.718 10.632-4.21 6.24-5.42 13.9-3.224 20.415 21.977 65.18-11.697 145.944-77.615 182.89-65.92 36.945-141.201 17.252-171.33-43.358-3.01-6.058-8.914-9.735-15.73-9.793-6.82-.06-13.649 3.505-18.196 9.499-45.507 59.95-125.643 78.283-181.998 40.271s-69.376-119.18-30.836-183.83c3.85-6.463 4.598-14.13 1.99-20.428-2.61-6.3-8.228-10.395-14.974-10.92-67.484-5.229-113.943-67.651-104.38-142.61 9.559-74.96 71.828-136.436 140.494-140.476 6.863-.405 13.512-4.396 17.722-10.637 4.206-6.236 5.419-13.9 3.22-20.41-21.974-65.184 11.697-145.945 77.618-182.889 65.918-36.946 141.201-17.258 171.33 43.353z"/><path d="M634.36 400.103c-67.357-45.433-164.302-19.633-216.389 57.588s-39.691 176.771 27.667 222.205 164.302 19.633 216.389-57.588 39.691-176.772-27.667-222.205zm-12.576 18.646c58.36 39.364 69.107 125.683 23.978 192.589s-129.188 89.276-187.548 49.912-69.107-125.683-23.978-192.589 129.188-89.277 187.548-49.912z"/></g></svg>