<?xml version="1.0" encoding="UTF-8" standalone="no"?>
<!DOCTYPE svg PUBLIC "-//W3C//DTD SVG 1.1//EN" "http://www.w3.org/Graphics/SVG/1.1/DTD/svg11.dtd">
<svg width="100%" height="100%" viewBox="0 0 1750 500" version="1.1" xmlns="http://www.w3.org/2000/svg" xmlns:xlink="http://www.w3.org/1999/xlink" xml:space="preserve" xmlns:serif="http://www.serif.com/" style="fill-rule:evenodd;clip-rule:evenodd;stroke-linejoin:round;stroke-miterlimit:2;">
    <g id="mile" transform="matrix(23.8808,0,0,23.8808,-8112.38,-6060.6)">
        <path d="M383.367,267.375C383.279,267.375 383.203,267.343 383.139,267.279C383.075,267.215 383.043,267.139 383.043,267.051L383.043,261.459C383.043,261.371 383.075,261.295 383.139,261.231C383.203,261.167 383.279,261.135 383.367,261.135L385.347,261.135C385.435,261.135 385.511,261.167 385.575,261.231C385.639,261.295 385.671,261.371 385.671,261.459L385.671,261.855C385.807,261.671 386.021,261.489 386.313,261.309C386.605,261.129 386.947,261.031 387.339,261.015C388.283,260.983 388.915,261.311 389.235,261.999C389.419,261.719 389.679,261.485 390.015,261.297C390.351,261.109 390.703,261.015 391.071,261.015C391.479,261.015 391.849,261.107 392.181,261.291C392.513,261.475 392.779,261.763 392.979,262.155C393.179,262.547 393.279,263.059 393.279,263.691L393.279,267.051C393.279,267.139 393.247,267.215 393.183,267.279C393.119,267.343 393.043,267.375 392.955,267.375L390.843,267.375C390.755,267.375 390.679,267.343 390.615,267.279C390.551,267.215 390.519,267.139 390.519,267.051L390.519,263.751C390.519,263.623 390.499,263.515 390.459,263.427C390.419,263.339 390.365,263.273 390.297,263.229C390.229,263.185 390.143,263.163 390.039,263.163C389.943,263.163 389.859,263.185 389.787,263.229C389.715,263.273 389.661,263.339 389.625,263.427C389.589,263.515 389.571,263.623 389.571,263.751L389.571,267.051C389.571,267.139 389.539,267.215 389.475,267.279C389.411,267.343 389.335,267.375 389.247,267.375L387.135,267.375C387.047,267.375 386.971,267.343 386.907,267.279C386.843,267.215 386.811,267.139 386.811,267.051L386.811,263.751C386.811,263.623 386.791,263.515 386.751,263.427C386.711,263.339 386.657,263.273 386.589,263.229C386.521,263.185 386.435,263.163 386.331,263.163C386.235,263.163 386.151,263.187 386.079,263.235C386.007,263.283 385.951,263.349 385.911,263.433C385.871,263.517 385.851,263.623 385.851,263.751L385.851,267.051C385.851,267.139 385.819,267.215 385.755,267.279C385.691,267.343 385.615,267.375 385.527,267.375L383.367,267.375Z" style="fill:rgb(254,209,65);fill-rule:nonzero;"/>
        <path d="M394.623,267.375C394.535,267.375 394.459,267.343 394.395,267.279C394.331,267.215 394.299,267.139 394.299,267.051L394.299,261.459C394.299,261.371 394.331,261.295 394.395,261.231C394.459,261.167 394.535,261.135 394.623,261.135L396.771,261.135C396.859,261.135 396.935,261.167 396.999,261.231C397.063,261.295 397.095,261.371 397.095,261.459L397.095,267.051C397.095,267.139 397.063,267.215 396.999,267.279C396.935,267.343 396.859,267.375 396.771,267.375L394.623,267.375ZM394.683,260.475C394.595,260.475 394.519,260.443 394.455,260.379C394.391,260.315 394.359,260.239 394.359,260.151L394.359,258.699C394.359,258.611 394.391,258.535 394.455,258.471C394.519,258.407 394.595,258.375 394.683,258.375L396.711,258.375C396.799,258.375 396.875,258.407 396.939,258.471C397.003,258.535 397.035,258.611 397.035,258.699L397.035,260.151C397.035,260.239 397.003,260.315 396.939,260.379C396.875,260.443 396.799,260.475 396.711,260.475L394.683,260.475Z" style="fill:rgb(254,209,65);fill-rule:nonzero;"/>
        <path d="M398.499,267.375C398.411,267.375 398.335,267.343 398.271,267.279C398.207,267.215 398.175,267.139 398.175,267.051L398.175,259.179C398.175,259.091 398.207,259.015 398.271,258.951C398.335,258.887 398.411,258.855 398.499,258.855L400.647,258.855C400.735,258.855 400.811,258.887 400.875,258.951C400.939,259.015 400.971,259.091 400.971,259.179L400.971,267.051C400.971,267.139 400.939,267.215 400.875,267.279C400.811,267.343 400.735,267.375 400.647,267.375L398.499,267.375Z" style="fill:rgb(254,209,65);fill-rule:nonzero;"/>
        <path d="M405.279,267.495C404.231,267.495 403.397,267.237 402.777,266.721C402.157,266.205 401.847,265.387 401.847,264.267L401.847,264.183C401.863,263.495 402.013,262.915 402.297,262.443C402.581,261.971 402.977,261.615 403.485,261.375C403.993,261.135 404.587,261.015 405.267,261.015C406.051,261.015 406.695,261.165 407.199,261.465C407.703,261.765 408.077,262.161 408.321,262.653C408.565,263.145 408.687,263.687 408.687,264.279L408.687,264.639C408.687,264.727 408.655,264.803 408.591,264.867C408.527,264.931 408.451,264.963 408.363,264.963L404.787,264.963L404.787,265.023C404.787,265.183 404.801,265.317 404.829,265.425C404.857,265.533 404.907,265.615 404.979,265.671C405.051,265.727 405.143,265.755 405.255,265.755C405.303,265.755 405.345,265.747 405.381,265.731C405.417,265.715 405.453,265.689 405.489,265.653C405.525,265.617 405.563,265.579 405.603,265.539C405.675,265.467 405.735,265.421 405.783,265.401C405.831,265.381 405.903,265.371 405.999,265.371L408.267,265.371C408.347,265.371 408.413,265.395 408.465,265.443C408.517,265.491 408.539,265.555 408.531,265.635C408.523,265.787 408.453,265.969 408.321,266.181C408.189,266.393 407.991,266.599 407.727,266.799C407.463,266.999 407.127,267.165 406.719,267.297C406.311,267.429 405.831,267.495 405.279,267.495ZM404.787,263.463L405.747,263.463L405.747,263.451C405.747,263.275 405.729,263.131 405.693,263.019C405.657,262.907 405.603,262.825 405.531,262.773C405.459,262.721 405.371,262.695 405.267,262.695C405.163,262.695 405.075,262.721 405.003,262.773C404.931,262.825 404.877,262.907 404.841,263.019C404.805,263.131 404.787,263.275 404.787,263.451L404.787,263.463Z" style="fill:rgb(254,209,65);fill-rule:nonzero;"/>
    </g>
    <g id="cam" transform="matrix(23.8808,0,0,23.8808,-9033.32,-6060.6)">
        <path d="M386.223,267.495C385.615,267.495 385.063,267.389 384.567,267.177C384.071,266.965 383.671,266.655 383.367,266.247C383.063,265.839 382.895,265.339 382.863,264.747C382.855,264.619 382.851,264.459 382.851,264.267C382.851,264.075 382.855,263.911 382.863,263.775C382.895,263.183 383.061,262.681 383.361,262.269C383.661,261.857 384.061,261.545 384.561,261.333C385.061,261.121 385.615,261.015 386.223,261.015C386.855,261.015 387.393,261.105 387.837,261.285C388.281,261.465 388.641,261.685 388.917,261.945C389.193,262.205 389.397,262.463 389.529,262.719C389.661,262.975 389.731,263.183 389.739,263.343C389.747,263.431 389.717,263.507 389.649,263.571C389.581,263.635 389.503,263.667 389.415,263.667L387.075,263.667C386.987,263.667 386.917,263.645 386.865,263.601C386.813,263.557 386.767,263.499 386.727,263.427C386.671,263.315 386.613,263.227 386.553,263.163C386.493,263.099 386.403,263.067 386.283,263.067C386.099,263.067 385.975,263.135 385.911,263.271C385.847,263.407 385.811,263.595 385.803,263.835C385.795,264.179 385.795,264.463 385.803,264.687C385.819,264.943 385.857,265.133 385.917,265.257C385.977,265.381 386.099,265.443 386.283,265.443C386.427,265.443 386.525,265.411 386.577,265.347C386.629,265.283 386.679,265.195 386.727,265.083C386.759,265.011 386.803,264.953 386.859,264.909C386.915,264.865 386.987,264.843 387.075,264.843L389.415,264.843C389.503,264.843 389.581,264.875 389.649,264.939C389.717,265.003 389.747,265.079 389.739,265.167C389.731,265.271 389.689,265.417 389.613,265.605C389.537,265.793 389.417,265.995 389.253,266.211C389.089,266.427 388.871,266.633 388.599,266.829C388.327,267.025 387.995,267.185 387.603,267.309C387.211,267.433 386.751,267.495 386.223,267.495Z" style="fill:rgb(254,209,65);fill-rule:nonzero;"/>
        <path d="M392.499,267.495C392.043,267.495 391.639,267.411 391.287,267.243C390.935,267.075 390.661,266.847 390.465,266.559C390.269,266.271 390.171,265.947 390.171,265.587C390.171,265.003 390.409,264.545 390.885,264.213C391.361,263.881 391.999,263.647 392.799,263.511L394.071,263.307L394.071,263.295C394.071,263.087 394.053,262.935 394.017,262.839C393.981,262.743 393.879,262.695 393.711,262.695C393.575,262.695 393.471,262.727 393.399,262.791C393.327,262.855 393.255,262.919 393.183,262.983C393.111,263.047 393.011,263.079 392.883,263.079L390.843,263.079C390.763,263.079 390.697,263.055 390.645,263.007C390.593,262.959 390.571,262.895 390.579,262.815C390.587,262.663 390.651,262.485 390.771,262.281C390.891,262.077 391.077,261.879 391.329,261.687C391.581,261.495 391.905,261.335 392.301,261.207C392.697,261.079 393.175,261.015 393.735,261.015C394.279,261.015 394.753,261.073 395.157,261.189C395.561,261.305 395.895,261.473 396.159,261.693C396.423,261.913 396.621,262.185 396.753,262.509C396.885,262.833 396.951,263.199 396.951,263.607L396.951,267.051C396.951,267.139 396.919,267.215 396.855,267.279C396.791,267.343 396.715,267.375 396.627,267.375L394.527,267.375C394.439,267.375 394.363,267.343 394.299,267.279C394.235,267.215 394.203,267.139 394.203,267.051L394.203,266.715C394.091,266.875 393.949,267.013 393.777,267.129C393.605,267.245 393.411,267.335 393.195,267.399C392.979,267.463 392.747,267.495 392.499,267.495ZM393.327,265.719C393.487,265.719 393.625,265.687 393.741,265.623C393.857,265.559 393.947,265.457 394.011,265.317C394.075,265.177 394.107,265.003 394.107,264.795L394.107,264.783L393.399,264.939C393.191,264.987 393.051,265.051 392.979,265.131C392.907,265.211 392.871,265.295 392.871,265.383C392.871,265.439 392.889,265.493 392.925,265.545C392.961,265.597 393.013,265.639 393.081,265.671C393.149,265.703 393.231,265.719 393.327,265.719Z" style="fill:rgb(254,209,65);fill-rule:nonzero;"/>
        <path d="M398.295,267.375C398.207,267.375 398.131,267.343 398.067,267.279C398.003,267.215 397.971,267.139 397.971,267.051L397.971,261.459C397.971,261.371 398.003,261.295 398.067,261.231C398.131,261.167 398.207,261.135 398.295,261.135L400.275,261.135C400.363,261.135 400.439,261.167 400.503,261.231C400.567,261.295 400.599,261.371 400.599,261.459L400.599,261.855C400.735,261.671 400.949,261.489 401.241,261.309C401.533,261.129 401.875,261.031 402.267,261.015C403.211,260.983 403.843,261.311 404.163,261.999C404.347,261.719 404.607,261.485 404.943,261.297C405.279,261.109 405.631,261.015 405.999,261.015C406.407,261.015 406.777,261.107 407.109,261.291C407.441,261.475 407.707,261.763 407.907,262.155C408.107,262.547 408.207,263.059 408.207,263.691L408.207,267.051C408.207,267.139 408.175,267.215 408.111,267.279C408.047,267.343 407.971,267.375 407.883,267.375L405.771,267.375C405.683,267.375 405.607,267.343 405.543,267.279C405.479,267.215 405.447,267.139 405.447,267.051L405.447,263.751C405.447,263.623 405.427,263.515 405.387,263.427C405.347,263.339 405.293,263.273 405.225,263.229C405.157,263.185 405.071,263.163 404.967,263.163C404.871,263.163 404.787,263.185 404.715,263.229C404.643,263.273 404.589,263.339 404.553,263.427C404.517,263.515 404.499,263.623 404.499,263.751L404.499,267.051C404.499,267.139 404.467,267.215 404.403,267.279C404.339,267.343 404.263,267.375 404.175,267.375L402.063,267.375C401.975,267.375 401.899,267.343 401.835,267.279C401.771,267.215 401.739,267.139 401.739,267.051L401.739,263.751C401.739,263.623 401.719,263.515 401.679,263.427C401.639,263.339 401.585,263.273 401.517,263.229C401.449,263.185 401.363,263.163 401.259,263.163C401.163,263.163 401.079,263.187 401.007,263.235C400.935,263.283 400.879,263.349 400.839,263.433C400.799,263.517 400.779,263.623 400.779,263.751L400.779,267.051C400.779,267.139 400.747,267.215 400.683,267.279C400.619,267.343 400.543,267.375 400.455,267.375L398.295,267.375Z" style="fill:rgb(254,209,65);fill-rule:nonzero;"/>
    </g>
    <g id="Camomile-logo-mark" serif:id="Camomile logo mark" transform="matrix(1,0,0,1,875,250)">
        <g transform="matrix(1,0,0,1,-250,-250)">
            <path id="Petals" d="M270.35,90.476C296.027,56.649 341.23,46.154 373.028,67.602C404.826,89.05 412.029,134.893 390.284,171.372C428.362,174.322 454.694,209.444 449.298,251.738C443.903,294.032 408.678,328.617 369.934,330.897C382.334,367.673 363.464,413.289 326.27,434.135C289.077,454.982 246.649,443.723 229.65,409.524C203.972,443.351 158.77,453.845 126.971,432.397C95.172,410.949 87.971,365.107 109.715,328.627C71.638,325.677 45.305,290.555 50.701,248.261C56.096,205.967 91.321,171.383 130.065,169.103C117.665,132.326 136.535,86.71 173.729,65.864C210.923,45.018 253.351,56.276 270.35,90.476ZM296.135,181.601C263.207,159.391 215.8,172.006 190.337,209.757C164.874,247.508 170.935,296.188 203.864,318.399C236.793,340.61 284.199,327.993 309.662,290.243C335.125,252.493 329.064,203.811 296.135,181.601Z" style="fill:white;"/>
            <path id="Petals-stroke" serif:id="Petals stroke" d="M270.35,90.473C296.026,56.647 341.23,46.152 373.028,67.6C404.826,89.048 412.028,134.891 390.285,171.37C428.361,174.32 454.693,209.441 449.298,251.735C443.903,294.029 408.678,328.616 369.933,330.894C382.333,367.672 363.462,413.287 326.269,434.133C289.076,454.979 246.647,443.721 229.649,409.523C203.97,443.349 158.768,453.843 126.97,432.395C95.172,410.947 87.969,365.105 109.715,328.625C71.637,325.675 45.305,290.553 50.7,248.259C56.095,205.965 91.32,171.381 130.065,169.1C117.665,132.325 136.535,86.708 173.729,65.862C210.923,45.016 253.351,56.274 270.351,90.473L270.35,90.473ZM261.308,96.266C262.781,99.228 265.666,101.026 269,101.054C272.333,101.083 275.67,99.342 277.895,96.413C300.143,67.1 339.323,58.136 366.875,76.72C394.427,95.304 400.795,134.99 381.952,166.6C380.068,169.76 379.704,173.505 380.98,176.586C382.255,179.666 385.003,181.668 388.3,181.923C421.293,184.48 444.007,215.002 439.333,251.651C434.657,288.299 404.215,318.353 370.641,320.331C367.287,320.526 364.035,322.48 361.979,325.529C359.921,328.579 359.329,332.325 360.403,335.509C371.148,367.377 354.684,406.864 322.456,424.927C290.226,442.99 253.421,433.362 238.69,403.728C237.219,400.768 234.332,398.969 231,398.941C227.665,398.911 224.327,400.655 222.103,403.585C199.855,432.895 160.675,441.859 133.123,423.274C105.571,404.689 99.203,365.004 118.046,333.397C119.929,330.237 120.294,326.489 119.02,323.409C117.743,320.329 114.997,318.327 111.698,318.071C78.705,315.514 55.99,284.995 60.665,248.347C65.339,211.698 95.783,181.641 129.355,179.666C132.71,179.468 135.961,177.516 138.019,174.466C140.076,171.416 140.669,167.67 139.594,164.486C128.85,132.617 145.313,93.133 177.542,75.07C209.77,57.007 246.577,66.633 261.308,96.266Z" style="fill:rgb(254,209,65);"/>
            <path id="Disk-stroke" serif:id="Disk stroke" d="M296.134,181.603C263.202,159.39 215.804,172.003 190.339,209.758C164.874,247.513 170.933,296.184 203.866,318.397C236.799,340.61 284.196,327.996 309.661,290.242C335.126,252.488 329.067,203.816 296.134,181.602L296.134,181.603ZM289.986,190.719C318.519,209.965 323.773,252.167 301.709,284.878C279.645,317.589 238.547,328.526 210.014,309.281C181.481,290.036 176.227,247.833 198.291,215.121C220.355,182.409 261.453,171.473 289.986,190.719Z" style="fill:rgb(254,209,65);"/>
        </g>
    </g>
</svg>
