<?xml version="1.0" encoding="UTF-8" standalone="no"?>
<!DOCTYPE svg PUBLIC "-//W3C//DTD SVG 1.1//EN" "http://www.w3.org/Graphics/SVG/1.1/DTD/svg11.dtd">
<svg width="100%" height="100%" viewBox="0 0 500 500" version="1.1" xmlns="http://www.w3.org/2000/svg" xmlns:xlink="http://www.w3.org/1999/xlink" xml:space="preserve" xmlns:serif="http://www.serif.com/" style="fill-rule:evenodd;clip-rule:evenodd;stroke-linejoin:round;stroke-miterlimit:2;">
    <path id="Petals" d="M270.35,90.476C296.027,56.649 341.23,46.154 373.028,67.602C404.826,89.05 412.029,134.893 390.284,171.372C428.362,174.322 454.694,209.444 449.298,251.738C443.903,294.032 408.678,328.617 369.934,330.897C382.334,367.673 363.464,413.289 326.27,434.135C289.077,454.982 246.649,443.723 229.65,409.524C203.972,443.351 158.77,453.845 126.971,432.397C95.172,410.949 87.971,365.107 109.715,328.627C71.638,325.677 45.305,290.555 50.701,248.261C56.096,205.967 91.321,171.383 130.065,169.103C117.665,132.326 136.535,86.71 173.729,65.864C210.923,45.018 253.351,56.276 270.35,90.476ZM296.135,181.601C263.207,159.391 215.8,172.006 190.337,209.757C164.874,247.508 170.935,296.188 203.864,318.399C236.793,340.61 284.199,327.993 309.662,290.243C335.125,252.493 329.064,203.811 296.135,181.601Z" style="fill:white;"/>
    <path id="Petals-stroke" serif:id="Petals stroke" d="M270.35,90.473C296.026,56.647 341.23,46.152 373.028,67.6C404.826,89.048 412.028,134.891 390.285,171.37C428.361,174.32 454.693,209.441 449.298,251.735C443.903,294.029 408.678,328.616 369.933,330.894C382.333,367.672 363.462,413.287 326.269,434.133C289.076,454.979 246.647,443.721 229.649,409.523C203.97,443.349 158.768,453.843 126.97,432.395C95.172,410.947 87.969,365.105 109.715,328.625C71.637,325.675 45.305,290.553 50.7,248.259C56.095,205.965 91.32,171.381 130.065,169.1C117.665,132.325 136.535,86.708 173.729,65.862C210.923,45.016 253.351,56.274 270.351,90.473L270.35,90.473ZM261.308,96.266C262.781,99.228 265.666,101.026 269,101.054C272.333,101.083 275.67,99.342 277.895,96.413C300.143,67.1 339.323,58.136 366.875,76.72C394.427,95.304 400.795,134.99 381.952,166.6C380.068,169.76 379.704,173.505 380.98,176.586C382.255,179.666 385.003,181.668 388.3,181.923C421.293,184.48 444.007,215.002 439.333,251.651C434.657,288.299 404.215,318.353 370.641,320.331C367.287,320.526 364.035,322.48 361.979,325.529C359.921,328.579 359.329,332.325 360.403,335.509C371.148,367.377 354.684,406.864 322.456,424.927C290.226,442.99 253.421,433.362 238.69,403.728C237.219,400.768 234.332,398.969 231,398.941C227.665,398.911 224.327,400.655 222.103,403.585C199.855,432.895 160.675,441.859 133.123,423.274C105.571,404.689 99.203,365.004 118.046,333.397C119.929,330.237 120.294,326.489 119.02,323.409C117.743,320.329 114.997,318.327 111.698,318.071C78.705,315.514 55.99,284.995 60.665,248.347C65.339,211.698 95.783,181.641 129.355,179.666C132.71,179.468 135.961,177.516 138.019,174.466C140.076,171.416 140.669,167.67 139.594,164.486C128.85,132.617 145.313,93.133 177.542,75.07C209.77,57.007 246.577,66.633 261.308,96.266Z" style="fill:rgb(254,209,65);"/>
    <path id="Disk-stroke" serif:id="Disk stroke" d="M296.134,181.603C263.202,159.39 215.804,172.003 190.339,209.758C164.874,247.513 170.933,296.184 203.866,318.397C236.799,340.61 284.196,327.996 309.661,290.242C335.126,252.488 329.067,203.816 296.134,181.602L296.134,181.603ZM289.986,190.719C318.519,209.965 323.773,252.167 301.709,284.878C279.645,317.589 238.547,328.526 210.014,309.281C181.481,290.036 176.227,247.833 198.291,215.121C220.355,182.409 261.453,171.473 289.986,190.719Z" style="fill:rgb(254,209,65);"/>
</svg>
